<?xml version="1.0" encoding="UTF-8" standalone="no"?>
<svg
   xmlns:dc="http://purl.org/dc/elements/1.1/"
   xmlns:cc="http://creativecommons.org/ns#"
   xmlns:rdf="http://www.w3.org/1999/02/22-rdf-syntax-ns#"
   xmlns:svg="http://www.w3.org/2000/svg"
   xmlns="http://www.w3.org/2000/svg"
   id="svg3729"
   version="1.1"
   width="48"
   viewBox="0 0 24 24"
   height="48"
   fill="#000000">
  <metadata
     id="metadata3735">
    <rdf:RDF>
      <cc:Work
         rdf:about="">
        <dc:format>image/svg+xml</dc:format>
        <dc:type
           rdf:resource="http://purl.org/dc/dcmitype/StillImage" />
        <dc:title></dc:title>
      </cc:Work>
    </rdf:RDF>
  </metadata>
  <defs
     id="defs3733" />
  <path
     id="path3725"
     fill="none"
     d="M0 0h24v24H0z" />
  <g
     id="g3757">
    <path
       d="M16.5 3c-1.74 0-3.41.81-4.5 2.09C10.91 3.81 9.24 3 7.5 3 4.42 3 2 5.42 2 8.5c0 3.78 3.4 6.86 8.55 11.54L12 21.35l1.45-1.32C18.6 15.36 22 12.28 22 8.5 22 5.42 19.58 3 16.5 3zm-4.4 15.55l-.1.1-.1-.1C7.14 14.24 4 11.39 4 8.5 4 6.5 5.5 5 7.5 5c1.54 0 3.04.99 3.57 2.36h1.87C13.46 5.99 14.96 5 16.5 5c2 0 3.5 1.5 3.5 3.5 0 2.89-3.14 5.74-7.9 10.05z"
       id="path3727" />
    <path
       style="stroke-width:0.0282477"
       d="M 8.5776015,15.946191 5.1552087,12.424202 4.5479523,11.491402 C 4.0501498,10.726731 3.9158962,10.498853 3.8031006,10.227109 3.6089056,9.7592577 3.507974,9.4490301 3.4175801,9.042152 3.0832733,7.5373934 3.3628581,6.1660486 4.2299305,5.0575693 4.4006293,4.8393468 4.8038839,4.4803583 5.0732347,4.3068369 5.6821714,3.9145483 6.3238871,3.7304355 7.0830423,3.7302087 c 0.7122926,-2.113e-4 1.298855,0.1558339 1.950257,0.5188369 0.8170347,0.4553027 1.5469737,1.257349 1.8696617,2.054353 l 0.09009,0.2225146 h 0.354987 c 0.257997,0 0.458524,0.019942 0.733933,0.073 l 0.378947,0.073 0.05525,-0.073 c 0.05107,-0.067493 0.073,-0.073 0.290162,-0.073 h 0.234917 l 0.110889,-0.2568486 c 0.376596,-0.8722963 1.026897,-1.57595 1.884537,-2.0391475 0.671202,-0.3625056 1.196137,-0.5000015 1.907392,-0.499604 0.733271,4.108e-4 0.960044,0.063873 1.741638,0.4873898 0.678212,0.3674981 0.622035,0.3196407 1.126802,0.9599076 l 0.294326,0.3733369 0.280326,0.6943191 0.280326,0.6943191 -0.17962,1.536874 c -0.204145,1.7467214 -0.185159,1.6658064 -0.552451,2.3543564 l -0.181052,0.33941 -3.565379,3.818061 c -1.960958,2.099934 -3.70569,3.966974 -3.87718,4.148979 L 12,19.468182 Z"
       id="path3753" />
  </g>
</svg>
